<svg width="325" height="289" viewBox="0 0 325 289" fill="none" xmlns="http://www.w3.org/2000/svg">
<rect width="325" height="289" fill="#673B20"/>
<rect x="177" y="171.68" width="7.50651" height="19" transform="rotate(-29.3564 177 171.68)" fill="#673B20"/>
<path d="M54 205C54 137.069 102.801 82 163 82C223.199 82 272 137.069 272 205" stroke="black" stroke-width="6"/>
<path d="M54 205C54 137.069 102.801 82 163 82C223.199 82 272 137.069 272 205" stroke="#D09730" stroke-width="6"/>
<path d="M164.763 130.33C164.905 130.47 164.991 131.017 165.02 131.972C165.104 132.915 165.123 133.957 165.077 135.097C165.086 136.226 165.057 137.306 164.989 138.337C164.964 139.304 164.887 139.885 164.758 140.081L163.945 140.25C163.783 140.284 163.615 140.291 163.441 140.271C164.253 142.815 164.904 144.855 165.394 146.393C165.883 147.93 166.145 148.78 166.179 148.943C166.258 149.322 166.181 149.903 165.948 150.686C165.77 151.458 165.526 152.187 165.216 152.873C164.907 153.56 164.542 154.116 164.122 154.543C163.768 155.012 163.476 155.101 163.245 154.81C162.873 154.379 162 153.034 160.625 150.777C159.251 148.519 157.582 145.39 155.619 141.39C154.513 141.507 153.353 141.636 152.138 141.775C150.978 141.904 149.791 142.038 148.576 142.178C147.362 142.317 146.142 142.43 144.916 142.516C143.733 142.536 142.583 142.577 141.466 142.64C141.42 145.137 141.346 147.498 141.244 149.724C141.196 151.938 141.092 153.882 140.932 155.554C140.825 157.216 140.705 158.541 140.572 159.529C140.439 160.518 140.291 161.029 140.128 161.063C139.695 161.153 139.205 160.973 138.659 160.521C138.113 160.069 137.571 159.504 137.034 158.824C136.551 158.133 136.117 157.404 135.731 156.637C135.345 155.869 135.096 155.215 134.983 154.673C134.832 153.404 134.697 152.076 134.577 150.687C134.512 149.288 134.415 148.008 134.287 146.848C134.167 145.459 134.054 144.098 133.945 142.764L133.62 142.832C133.381 142.769 133.032 142.587 132.574 142.286C132.116 141.986 131.658 141.686 131.2 141.386C130.73 141.031 130.321 140.692 129.971 140.37C129.61 139.993 129.407 139.696 129.361 139.479C129.339 139.371 129.696 139.183 130.431 138.917C131.222 138.64 132.255 138.311 133.533 137.932C133.29 134.591 133.046 131.11 132.8 127.486C132.555 123.863 132.355 120.457 132.199 117.268C132.044 114.078 131.947 111.3 131.906 108.935C131.909 106.504 131.983 104.821 132.127 103.886C132.365 102.311 133.042 100.813 134.16 99.3934C135.266 97.9196 136.472 96.6512 137.777 95.5883C139.124 94.4599 140.43 93.538 141.695 92.8226C142.959 92.1073 143.916 91.682 144.566 91.5466C144.837 91.4903 145.265 92.0513 145.849 93.2297C146.476 94.3427 147.194 95.889 148.002 97.8688C148.864 99.8374 149.799 102.158 150.807 104.831C151.859 107.438 152.917 110.214 153.982 113.158C155.047 116.101 156.102 119.132 157.146 122.249C158.234 125.301 159.266 128.224 160.243 131.016C162.952 130.452 164.459 130.223 164.763 130.33ZM141.623 135.655C143.334 135.186 145.051 134.744 146.773 134.329C148.495 133.914 150.185 133.477 151.842 133.019C150.969 130.996 149.991 128.741 148.908 126.253C148.012 124.122 146.956 121.629 145.74 118.773C144.523 115.918 143.245 112.764 141.905 109.312C141.92 112.644 141.918 115.895 141.9 119.064C141.87 122.179 141.832 124.985 141.787 127.481C141.766 130.368 141.711 133.093 141.623 135.655Z" fill="#D09730"/>
<path d="M181.294 125.165C181.347 125.314 181.343 126.098 181.282 127.516C181.271 128.918 181.208 130.728 181.093 132.948C180.978 135.168 180.835 137.706 180.664 140.56C180.493 143.415 180.314 146.328 180.128 149.3C179.942 152.271 179.756 155.243 179.569 158.215C179.366 161.137 179.158 163.809 178.947 166.23C178.785 168.635 178.634 170.672 178.494 172.342C178.403 173.994 178.337 175.079 178.295 175.597C183.246 173.3 186.773 171.726 188.878 170.875C191.014 169.957 192.184 169.547 192.385 169.644C192.654 169.773 192.82 170.245 192.883 171.062C192.929 171.828 192.91 172.729 192.826 173.764C192.725 174.75 192.591 175.72 192.422 176.673C192.237 177.576 192.056 178.255 191.879 178.708C191.865 178.825 191.501 179.064 190.79 179.426C190.111 179.72 189.258 180.076 188.23 180.492C187.253 180.891 186.151 181.334 184.924 181.821C183.747 182.29 182.621 182.742 181.543 183.176C180.449 183.56 179.478 183.901 178.633 184.198C177.837 184.477 177.305 184.636 177.039 184.673C176.673 184.746 176.255 184.669 175.785 184.443C175.346 184.15 174.89 183.807 174.417 183.414C173.994 183.004 173.586 182.56 173.195 182.083C172.786 181.556 172.479 181.077 172.272 180.647C172.065 180.216 171.895 179.018 171.764 177.052C171.665 175.019 171.593 172.585 171.548 169.751C171.552 166.899 171.562 163.821 171.576 160.519C171.59 157.216 171.623 154.047 171.674 151.011C171.758 147.907 171.823 145.146 171.867 142.727C171.895 140.258 171.908 138.465 171.907 137.347C169.471 138.37 167.459 139.245 165.869 139.97C164.312 140.629 163.07 141.149 162.142 141.531C161.214 141.913 160.551 142.173 160.153 142.313C159.755 142.453 159.48 142.466 159.328 142.351C158.974 142.14 158.516 141.63 157.953 140.822C157.422 139.947 156.923 139.004 156.456 137.994C155.973 136.934 155.598 135.948 155.334 135.035C155.051 134.072 154.991 133.422 155.152 133.086C155.249 132.885 155.927 132.507 157.186 131.953C158.477 131.332 160.059 130.665 161.932 129.951C163.805 129.238 165.821 128.53 167.978 127.828C170.167 127.06 172.208 126.427 174.102 125.93C176.027 125.365 177.664 125.014 179.013 124.876C180.344 124.688 181.105 124.784 181.294 125.165Z" fill="#D09730"/>
<path d="M105.04 208.34L105.36 206.64C105.46 206.713 105.667 206.813 105.98 206.94C106.3 207.06 106.68 207.173 107.12 207.28C107.567 207.38 108.027 207.433 108.5 207.44C109.14 207.447 109.627 207.337 109.96 207.11C110.293 206.883 110.46 206.567 110.46 206.16C110.46 205.873 110.36 205.623 110.16 205.41C109.96 205.197 109.683 205 109.33 204.82C108.983 204.633 108.587 204.44 108.14 204.24C107.54 203.967 107.01 203.67 106.55 203.35C106.09 203.03 105.73 202.653 105.47 202.22C105.217 201.787 105.093 201.267 105.1 200.66C105.113 200 105.303 199.453 105.67 199.02C106.043 198.58 106.537 198.253 107.15 198.04C107.763 197.827 108.447 197.72 109.2 197.72C109.9 197.72 110.513 197.793 111.04 197.94C111.567 198.08 111.913 198.2 112.08 198.3L111.74 200.04C111.62 199.94 111.433 199.843 111.18 199.75C110.933 199.65 110.647 199.57 110.32 199.51C109.993 199.45 109.66 199.42 109.32 199.42C108.64 199.42 108.127 199.52 107.78 199.72C107.433 199.913 107.253 200.187 107.24 200.54C107.233 201.027 107.4 201.39 107.74 201.63C108.087 201.87 108.5 202.107 108.98 202.34C109.667 202.673 110.287 203.003 110.84 203.33C111.393 203.65 111.83 204.02 112.15 204.44C112.477 204.853 112.64 205.367 112.64 205.98C112.64 207.02 112.283 207.81 111.57 208.35C110.857 208.89 109.88 209.16 108.64 209.16C108.127 209.16 107.627 209.12 107.14 209.04C106.66 208.96 106.233 208.857 105.86 208.73C105.493 208.603 105.22 208.473 105.04 208.34ZM117.579 209.16C116.912 209.16 116.319 209.03 115.799 208.77C115.285 208.503 114.879 208.13 114.579 207.65C114.285 207.163 114.139 206.59 114.139 205.93C114.139 205.217 114.329 204.613 114.709 204.12C115.095 203.62 115.612 203.23 116.259 202.95C116.685 202.777 117.149 202.64 117.649 202.54C118.149 202.433 118.649 202.36 119.149 202.32C119.649 202.273 120.112 202.25 120.539 202.25L121.019 202.86L120.539 203.67C120.279 203.67 119.965 203.69 119.599 203.73C119.239 203.763 118.882 203.82 118.529 203.9C118.175 203.973 117.875 204.07 117.629 204.19C117.289 204.343 117.005 204.54 116.779 204.78C116.552 205.02 116.439 205.353 116.439 205.78C116.439 206.34 116.592 206.763 116.899 207.05C117.212 207.337 117.675 207.48 118.289 207.48C118.602 207.48 118.919 207.433 119.239 207.34C119.559 207.247 119.835 207.14 120.069 207.02C120.309 206.9 120.465 206.797 120.539 206.71L120.999 207.2L120.669 208.06C120.375 208.327 119.952 208.577 119.399 208.81C118.845 209.043 118.239 209.16 117.579 209.16ZM122.849 209H120.669V207.34H120.539V201.2C120.539 200.547 120.365 200.117 120.019 199.91C119.679 199.697 119.192 199.59 118.559 199.59C118.139 199.59 117.705 199.633 117.259 199.72C116.812 199.8 116.402 199.903 116.029 200.03C115.655 200.15 115.369 200.273 115.169 200.4L114.629 198.74C114.782 198.647 115.075 198.517 115.509 198.35C115.949 198.183 116.459 198.033 117.039 197.9C117.625 197.76 118.205 197.69 118.779 197.69C119.612 197.69 120.332 197.787 120.939 197.98C121.552 198.173 122.022 198.533 122.349 199.06C122.682 199.58 122.849 200.337 122.849 201.33V209ZM126.191 209V192.74H128.511V209H126.191ZM136.289 209.16C134.689 209.16 133.455 208.653 132.589 207.64C131.722 206.627 131.289 205.22 131.289 203.42C131.289 202.34 131.479 201.373 131.859 200.52C132.245 199.667 132.812 198.99 133.559 198.49C134.312 197.99 135.235 197.733 136.329 197.72C136.889 197.707 137.415 197.787 137.909 197.96C138.402 198.133 138.839 198.397 139.219 198.75C139.599 199.097 139.899 199.537 140.119 200.07C140.345 200.603 140.469 201.227 140.489 201.94C140.489 202.36 140.485 202.737 140.479 203.07C140.472 203.397 140.442 203.687 140.389 203.94H132.629L132.829 202.48H138.329C138.362 201.947 138.329 201.443 138.229 200.97C138.135 200.49 137.929 200.103 137.609 199.81C137.295 199.51 136.829 199.36 136.209 199.36C135.689 199.36 135.222 199.507 134.809 199.8C134.395 200.087 134.075 200.573 133.849 201.26C133.622 201.947 133.529 202.887 133.569 204.08C133.609 204.92 133.779 205.583 134.079 206.07C134.379 206.557 134.772 206.903 135.259 207.11C135.745 207.317 136.289 207.42 136.889 207.42C137.142 207.42 137.452 207.393 137.819 207.34C138.185 207.28 138.539 207.207 138.879 207.12C139.225 207.027 139.489 206.927 139.669 206.82L140.109 208.14C139.862 208.34 139.525 208.517 139.099 208.67C138.679 208.823 138.222 208.943 137.729 209.03C137.235 209.117 136.755 209.16 136.289 209.16ZM142.501 208.34L142.821 206.64C142.921 206.713 143.128 206.813 143.441 206.94C143.761 207.06 144.141 207.173 144.581 207.28C145.028 207.38 145.488 207.433 145.961 207.44C146.601 207.447 147.088 207.337 147.421 207.11C147.754 206.883 147.921 206.567 147.921 206.16C147.921 205.873 147.821 205.623 147.621 205.41C147.421 205.197 147.144 205 146.791 204.82C146.444 204.633 146.048 204.44 145.601 204.24C145.001 203.967 144.471 203.67 144.011 203.35C143.551 203.03 143.191 202.653 142.931 202.22C142.678 201.787 142.554 201.267 142.561 200.66C142.574 200 142.764 199.453 143.131 199.02C143.504 198.58 143.998 198.253 144.611 198.04C145.224 197.827 145.908 197.72 146.661 197.72C147.361 197.72 147.974 197.793 148.501 197.94C149.028 198.08 149.374 198.2 149.541 198.3L149.201 200.04C149.081 199.94 148.894 199.843 148.641 199.75C148.394 199.65 148.108 199.57 147.781 199.51C147.454 199.45 147.121 199.42 146.781 199.42C146.101 199.42 145.588 199.52 145.241 199.72C144.894 199.913 144.714 200.187 144.701 200.54C144.694 201.027 144.861 201.39 145.201 201.63C145.548 201.87 145.961 202.107 146.441 202.34C147.128 202.673 147.748 203.003 148.301 203.33C148.854 203.65 149.291 204.02 149.611 204.44C149.938 204.853 150.101 205.367 150.101 205.98C150.101 207.02 149.744 207.81 149.031 208.35C148.318 208.89 147.341 209.16 146.101 209.16C145.588 209.16 145.088 209.12 144.601 209.04C144.121 208.96 143.694 208.857 143.321 208.73C142.954 208.603 142.681 208.473 142.501 208.34ZM159.484 209.16C158.957 209.16 158.494 209.077 158.094 208.91C157.694 208.743 157.381 208.45 157.154 208.03C156.934 207.603 156.824 207 156.824 206.22V199.56H155.384V198.32C155.877 198.18 156.254 198.063 156.514 197.97C156.774 197.87 156.964 197.66 157.084 197.34C157.137 197.193 157.197 197.02 157.264 196.82C157.331 196.613 157.404 196.387 157.484 196.14C157.564 195.887 157.651 195.613 157.744 195.32H159.124V197.86H162.244V199.56H159.124V205C159.124 205.72 159.154 206.247 159.214 206.58C159.281 206.907 159.401 207.117 159.574 207.21C159.754 207.297 160.017 207.34 160.364 207.34C160.551 207.34 160.764 207.32 161.004 207.28C161.251 207.233 161.484 207.177 161.704 207.11C161.931 207.043 162.104 206.973 162.224 206.9L162.604 208.22C162.404 208.373 162.134 208.523 161.794 208.67C161.461 208.81 161.091 208.927 160.684 209.02C160.284 209.113 159.884 209.16 159.484 209.16ZM166.821 200.82L166.681 199.3C166.781 199.093 166.991 198.867 167.311 198.62C167.631 198.367 168.008 198.15 168.441 197.97C168.881 197.79 169.328 197.7 169.781 197.7C170.034 197.7 170.251 197.71 170.431 197.73C170.618 197.75 170.754 197.787 170.841 197.84V200C170.741 199.947 170.588 199.89 170.381 199.83C170.181 199.77 169.854 199.74 169.401 199.74C168.988 199.74 168.614 199.8 168.281 199.92C167.954 200.033 167.668 200.173 167.421 200.34C167.174 200.507 166.974 200.667 166.821 200.82ZM164.641 209V197.88H166.601L166.761 199.3L166.941 200.14V209H164.641ZM175.157 209.16C174.49 209.16 173.897 209.03 173.377 208.77C172.864 208.503 172.457 208.13 172.157 207.65C171.864 207.163 171.717 206.59 171.717 205.93C171.717 205.217 171.907 204.613 172.287 204.12C172.674 203.62 173.19 203.23 173.837 202.95C174.264 202.777 174.727 202.64 175.227 202.54C175.727 202.433 176.227 202.36 176.727 202.32C177.227 202.273 177.69 202.25 178.117 202.25L178.597 202.86L178.117 203.67C177.857 203.67 177.544 203.69 177.177 203.73C176.817 203.763 176.46 203.82 176.107 203.9C175.754 203.973 175.454 204.07 175.207 204.19C174.867 204.343 174.584 204.54 174.357 204.78C174.13 205.02 174.017 205.353 174.017 205.78C174.017 206.34 174.17 206.763 174.477 207.05C174.79 207.337 175.254 207.48 175.867 207.48C176.18 207.48 176.497 207.433 176.817 207.34C177.137 207.247 177.414 207.14 177.647 207.02C177.887 206.9 178.044 206.797 178.117 206.71L178.577 207.2L178.247 208.06C177.954 208.327 177.53 208.577 176.977 208.81C176.424 209.043 175.817 209.16 175.157 209.16ZM180.427 209H178.247V207.34H178.117V201.2C178.117 200.547 177.944 200.117 177.597 199.91C177.257 199.697 176.77 199.59 176.137 199.59C175.717 199.59 175.284 199.633 174.837 199.72C174.39 199.8 173.98 199.903 173.607 200.03C173.234 200.15 172.947 200.273 172.747 200.4L172.207 198.74C172.36 198.647 172.654 198.517 173.087 198.35C173.527 198.183 174.037 198.033 174.617 197.9C175.204 197.76 175.784 197.69 176.357 197.69C177.19 197.69 177.91 197.787 178.517 197.98C179.13 198.173 179.6 198.533 179.927 199.06C180.26 199.58 180.427 200.337 180.427 201.33V209ZM182.671 203.56C182.671 202.46 182.871 201.47 183.271 200.59C183.671 199.71 184.271 199.013 185.071 198.5C185.871 197.98 186.871 197.72 188.071 197.72C188.771 197.72 189.364 197.783 189.851 197.91C190.338 198.037 190.671 198.16 190.851 198.28L190.491 200.1C190.211 199.907 189.874 199.763 189.481 199.67C189.088 199.57 188.611 199.52 188.051 199.52C187.551 199.52 187.068 199.643 186.601 199.89C186.134 200.13 185.744 200.517 185.431 201.05C185.118 201.583 184.944 202.287 184.911 203.16C184.884 204.08 185.004 204.857 185.271 205.49C185.544 206.117 185.918 206.593 186.391 206.92C186.871 207.24 187.404 207.4 187.991 207.4C188.544 207.4 189.054 207.33 189.521 207.19C189.994 207.05 190.351 206.907 190.591 206.76L191.031 208.1C190.691 208.42 190.211 208.677 189.591 208.87C188.971 209.063 188.311 209.16 187.611 209.16C186.551 209.16 185.654 208.913 184.921 208.42C184.188 207.927 183.628 207.26 183.241 206.42C182.861 205.573 182.671 204.62 182.671 203.56ZM202.627 197.86L195.347 205.46L195.547 204.92L195.587 206.84V209H193.347V202.38V192.78H195.587V201.26L195.507 203.7L194.967 203.32L199.927 197.86H202.627ZM196.747 203.52L198.307 202.02L203.107 209H200.487L196.747 203.52ZM208.867 209.16C207.267 209.16 206.033 208.653 205.167 207.64C204.3 206.627 203.867 205.22 203.867 203.42C203.867 202.34 204.057 201.373 204.437 200.52C204.823 199.667 205.39 198.99 206.137 198.49C206.89 197.99 207.813 197.733 208.907 197.72C209.467 197.707 209.993 197.787 210.487 197.96C210.98 198.133 211.417 198.397 211.797 198.75C212.177 199.097 212.477 199.537 212.697 200.07C212.923 200.603 213.047 201.227 213.067 201.94C213.067 202.36 213.063 202.737 213.057 203.07C213.05 203.397 213.02 203.687 212.967 203.94H205.207L205.407 202.48H210.907C210.94 201.947 210.907 201.443 210.807 200.97C210.713 200.49 210.507 200.103 210.187 199.81C209.873 199.51 209.407 199.36 208.787 199.36C208.267 199.36 207.8 199.507 207.387 199.8C206.973 200.087 206.653 200.573 206.427 201.26C206.2 201.947 206.107 202.887 206.147 204.08C206.187 204.92 206.357 205.583 206.657 206.07C206.957 206.557 207.35 206.903 207.837 207.11C208.323 207.317 208.867 207.42 209.467 207.42C209.72 207.42 210.03 207.393 210.397 207.34C210.763 207.28 211.117 207.207 211.457 207.12C211.803 207.027 212.067 206.927 212.247 206.82L212.687 208.14C212.44 208.34 212.103 208.517 211.677 208.67C211.257 208.823 210.8 208.943 210.307 209.03C209.813 209.117 209.333 209.16 208.867 209.16ZM217.739 200.82L217.599 199.3C217.699 199.093 217.909 198.867 218.229 198.62C218.549 198.367 218.926 198.15 219.359 197.97C219.799 197.79 220.246 197.7 220.699 197.7C220.952 197.7 221.169 197.71 221.349 197.73C221.536 197.75 221.672 197.787 221.759 197.84V200C221.659 199.947 221.506 199.89 221.299 199.83C221.099 199.77 220.772 199.74 220.319 199.74C219.906 199.74 219.532 199.8 219.199 199.92C218.872 200.033 218.586 200.173 218.339 200.34C218.092 200.507 217.892 200.667 217.739 200.82ZM215.559 209V197.88H217.519L217.679 199.3L217.859 200.14V209H215.559Z" fill="#D09730"/>
</svg>
