<svg width="224" height="139" viewBox="0 0 224 139" fill="none" xmlns="http://www.w3.org/2000/svg">
<path d="M3 130C3 62.069 51.8009 7 112 7C172.199 7 221 62.069 221 130" stroke="black" stroke-width="6"/>
<path d="M3 130C3 62.069 51.8009 7 112 7C172.199 7 221 62.069 221 130" stroke="#D09730" stroke-width="6"/>
<path d="M113.763 55.3296C113.905 55.4696 113.991 56.017 114.02 56.9719C114.104 57.9154 114.123 58.9572 114.077 60.0971C114.086 61.2258 114.057 62.3059 113.989 63.3375C113.964 64.3036 113.887 64.8848 113.758 65.0812L112.945 65.2504C112.783 65.2842 112.615 65.2909 112.441 65.2706C113.253 67.8147 113.904 69.8554 114.394 71.3927C114.883 72.9301 115.145 73.78 115.179 73.9425C115.258 74.3218 115.181 74.903 114.948 75.6862C114.77 76.4582 114.526 77.1873 114.216 77.8734C113.907 78.5596 113.542 79.116 113.122 79.5425C112.768 80.012 112.476 80.1011 112.245 79.8099C111.873 79.3786 111 78.0343 109.625 75.7767C108.251 73.5192 106.582 70.3902 104.619 66.3899C103.513 66.5071 102.353 66.6356 101.138 66.7753C99.9781 66.9038 98.7907 67.0379 97.5762 67.1776C96.3618 67.3173 95.1417 67.43 93.916 67.5155C92.7331 67.5356 91.583 67.5772 90.4656 67.6402C90.42 70.1368 90.3463 72.4979 90.2443 74.7236C90.1965 76.938 90.0923 78.8815 89.9317 80.5542C89.8253 82.2155 89.7055 83.5405 89.5721 84.5292C89.4388 85.5179 89.2908 86.0291 89.1283 86.063C88.6949 86.1532 88.2051 85.9725 87.6589 85.521C87.1127 85.0694 86.571 84.5038 86.0339 83.8243C85.551 83.1335 85.1166 82.4043 84.7307 81.6367C84.3448 80.8692 84.0955 80.2145 83.9828 79.6727C83.8318 78.4041 83.6966 77.0757 83.5772 75.6874C83.512 74.2879 83.4151 73.008 83.2867 71.8477C83.1673 70.4594 83.0535 69.0982 82.9454 67.7641L82.6203 67.8318C82.3811 67.7686 82.0324 67.5868 81.5742 67.2865C81.116 66.9862 80.6578 66.6859 80.1996 66.3856C79.7302 66.0311 79.3205 65.6924 78.9707 65.3696C78.6096 64.9925 78.4065 64.6957 78.3614 64.4789C78.3388 64.3706 78.6955 64.1833 79.4315 63.9171C80.2216 63.6396 81.2555 63.3113 82.5332 62.9323C82.29 59.5915 82.0457 56.1095 81.8003 52.4865C81.5549 48.8635 81.3546 45.4572 81.1994 42.2676C81.0442 39.078 80.9465 36.3003 80.9063 33.9347C80.909 31.5035 80.9827 29.8207 81.1273 28.8862C81.3646 27.3107 82.0421 25.8131 83.1597 24.3934C84.266 22.9196 85.4717 21.6512 86.7766 20.5883C88.1244 19.4599 89.4304 18.538 90.6946 17.8226C91.9589 17.1073 92.916 16.682 93.5662 16.5466C93.837 16.4903 94.2647 17.0513 94.8491 18.2297C95.4765 19.3427 96.194 20.889 97.0018 22.8688C97.8637 24.8374 98.799 27.158 99.8075 29.8309C100.859 32.4383 101.917 35.2138 102.982 38.1575C104.047 41.1012 105.102 44.1319 106.146 47.2494C107.234 50.3015 108.266 53.2237 109.243 56.0162C111.952 55.4523 113.459 55.2235 113.763 55.3296ZM90.6226 60.655C92.3338 60.1858 94.0505 59.7437 95.7729 59.3286C97.4953 58.9136 99.185 58.4771 100.842 58.0192C99.9687 55.9965 98.9906 53.7412 97.9075 51.2535C97.0118 49.1224 95.9558 46.6291 94.7396 43.7733C93.5234 40.9176 92.2452 37.764 90.905 34.3123C90.9202 37.6441 90.9185 40.8946 90.8999 44.0639C90.87 47.1789 90.8322 49.9848 90.7866 52.4813C90.7658 55.3684 90.7111 58.093 90.6226 60.655Z" fill="#D09730"/>
<path d="M130.294 50.1645C130.347 50.3138 130.343 51.0977 130.282 52.5164C130.271 53.9175 130.208 55.7281 130.093 57.9481C129.978 60.1681 129.835 62.7055 129.664 65.5602C129.493 68.4149 129.314 71.3281 129.128 74.2998C128.942 77.2715 128.756 80.2432 128.569 83.2148C128.366 86.1368 128.158 88.8086 127.947 91.2303C127.785 93.6345 127.634 95.6717 127.494 97.3417C127.403 98.9943 127.337 100.079 127.295 100.597C132.246 98.3001 135.773 96.7261 137.878 95.8754C140.014 94.9574 141.184 94.5468 141.385 94.6436C141.654 94.7728 141.82 95.2455 141.883 96.0617C141.929 96.8282 141.91 97.7291 141.826 98.7645C141.725 99.7501 141.591 100.72 141.422 101.673C141.237 102.576 141.056 103.255 140.879 103.708C140.865 103.825 140.501 104.064 139.79 104.426C139.111 104.72 138.258 105.076 137.23 105.492C136.253 105.891 135.151 106.334 133.924 106.821C132.747 107.29 131.621 107.742 130.543 108.176C129.449 108.56 128.478 108.901 127.633 109.198C126.837 109.477 126.305 109.636 126.039 109.673C125.673 109.746 125.255 109.669 124.785 109.443C124.346 109.15 123.89 108.807 123.417 108.414C122.994 108.004 122.586 107.56 122.195 107.083C121.786 106.556 121.479 106.077 121.272 105.647C121.065 105.216 120.895 104.018 120.764 102.052C120.665 100.019 120.593 97.5851 120.548 94.7506C120.552 91.8985 120.562 88.8212 120.576 85.5187C120.59 82.2162 120.623 79.0469 120.674 76.0106C120.758 72.9071 120.823 70.1459 120.867 67.7268C120.895 65.258 120.908 63.4649 120.907 62.3475C118.471 63.3703 116.459 64.2446 114.869 64.9704C113.312 65.629 112.07 66.1492 111.142 66.5309C110.214 66.9126 109.551 67.1733 109.153 67.3131C108.755 67.4528 108.48 67.4656 108.328 67.3512C107.974 67.1401 107.516 66.6303 106.953 65.8221C106.422 64.9466 105.923 64.0039 105.456 62.994C104.973 61.9343 104.598 60.9479 104.334 60.0348C104.051 59.072 103.991 58.4225 104.152 58.0863C104.249 57.8847 104.927 57.5069 106.186 56.9532C107.477 56.3322 109.059 55.6649 110.932 54.9512C112.805 54.2375 114.821 53.53 116.978 52.8285C119.167 52.0597 121.208 51.4268 123.102 50.9296C125.027 50.3652 126.664 50.0139 128.013 49.8757C129.344 49.6877 130.105 49.784 130.294 50.1645Z" fill="#D09730"/>
<path d="M54.04 133.34L54.36 131.64C54.46 131.713 54.6667 131.813 54.98 131.94C55.3 132.06 55.68 132.173 56.12 132.28C56.5667 132.38 57.0267 132.433 57.5 132.44C58.14 132.447 58.6267 132.337 58.96 132.11C59.2933 131.883 59.46 131.567 59.46 131.16C59.46 130.873 59.36 130.623 59.16 130.41C58.96 130.197 58.6833 130 58.33 129.82C57.9833 129.633 57.5867 129.44 57.14 129.24C56.54 128.967 56.01 128.67 55.55 128.35C55.09 128.03 54.73 127.653 54.47 127.22C54.2167 126.787 54.0933 126.267 54.1 125.66C54.1133 125 54.3033 124.453 54.67 124.02C55.0433 123.58 55.5367 123.253 56.15 123.04C56.7633 122.827 57.4467 122.72 58.2 122.72C58.9 122.72 59.5133 122.793 60.04 122.94C60.5667 123.08 60.9133 123.2 61.08 123.3L60.74 125.04C60.62 124.94 60.4333 124.843 60.18 124.75C59.9333 124.65 59.6467 124.57 59.32 124.51C58.9933 124.45 58.66 124.42 58.32 124.42C57.64 124.42 57.1267 124.52 56.78 124.72C56.4333 124.913 56.2533 125.187 56.24 125.54C56.2333 126.027 56.4 126.39 56.74 126.63C57.0867 126.87 57.5 127.107 57.98 127.34C58.6667 127.673 59.2867 128.003 59.84 128.33C60.3933 128.65 60.83 129.02 61.15 129.44C61.4767 129.853 61.64 130.367 61.64 130.98C61.64 132.02 61.2833 132.81 60.57 133.35C59.8567 133.89 58.88 134.16 57.64 134.16C57.1267 134.16 56.6267 134.12 56.14 134.04C55.66 133.96 55.2333 133.857 54.86 133.73C54.4933 133.603 54.22 133.473 54.04 133.34ZM66.5788 134.16C65.9121 134.16 65.3188 134.03 64.7988 133.77C64.2854 133.503 63.8788 133.13 63.5788 132.65C63.2854 132.163 63.1388 131.59 63.1388 130.93C63.1388 130.217 63.3288 129.613 63.7088 129.12C64.0954 128.62 64.6121 128.23 65.2588 127.95C65.6854 127.777 66.1488 127.64 66.6488 127.54C67.1488 127.433 67.6488 127.36 68.1488 127.32C68.6488 127.273 69.1121 127.25 69.5388 127.25L70.0188 127.86L69.5388 128.67C69.2788 128.67 68.9654 128.69 68.5988 128.73C68.2388 128.763 67.8821 128.82 67.5288 128.9C67.1754 128.973 66.8754 129.07 66.6288 129.19C66.2888 129.343 66.0054 129.54 65.7788 129.78C65.5521 130.02 65.4388 130.353 65.4388 130.78C65.4388 131.34 65.5921 131.763 65.8988 132.05C66.2121 132.337 66.6754 132.48 67.2888 132.48C67.6021 132.48 67.9188 132.433 68.2388 132.34C68.5588 132.247 68.8354 132.14 69.0688 132.02C69.3088 131.9 69.4654 131.797 69.5388 131.71L69.9988 132.2L69.6688 133.06C69.3754 133.327 68.9521 133.577 68.3988 133.81C67.8454 134.043 67.2388 134.16 66.5788 134.16ZM71.8488 134H69.6688V132.34H69.5388V126.2C69.5388 125.547 69.3654 125.117 69.0188 124.91C68.6788 124.697 68.1921 124.59 67.5588 124.59C67.1388 124.59 66.7054 124.633 66.2588 124.72C65.8121 124.8 65.4021 124.903 65.0288 125.03C64.6554 125.15 64.3688 125.273 64.1688 125.4L63.6288 123.74C63.7821 123.647 64.0754 123.517 64.5088 123.35C64.9488 123.183 65.4588 123.033 66.0388 122.9C66.6254 122.76 67.2054 122.69 67.7788 122.69C68.6121 122.69 69.3321 122.787 69.9388 122.98C70.5521 123.173 71.0221 123.533 71.3488 124.06C71.6821 124.58 71.8488 125.337 71.8488 126.33V134ZM75.1906 134V117.74H77.5106V134H75.1906ZM85.2886 134.16C83.6886 134.16 82.4553 133.653 81.5886 132.64C80.7219 131.627 80.2886 130.22 80.2886 128.42C80.2886 127.34 80.4786 126.373 80.8586 125.52C81.2453 124.667 81.8119 123.99 82.5586 123.49C83.3119 122.99 84.2353 122.733 85.3286 122.72C85.8886 122.707 86.4153 122.787 86.9086 122.96C87.4019 123.133 87.8386 123.397 88.2186 123.75C88.5986 124.097 88.8986 124.537 89.1186 125.07C89.3453 125.603 89.4686 126.227 89.4886 126.94C89.4886 127.36 89.4853 127.737 89.4786 128.07C89.4719 128.397 89.4419 128.687 89.3886 128.94H81.6286L81.8286 127.48H87.3286C87.3619 126.947 87.3286 126.443 87.2286 125.97C87.1353 125.49 86.9286 125.103 86.6086 124.81C86.2953 124.51 85.8286 124.36 85.2086 124.36C84.6886 124.36 84.2219 124.507 83.8086 124.8C83.3953 125.087 83.0753 125.573 82.8486 126.26C82.6219 126.947 82.5286 127.887 82.5686 129.08C82.6086 129.92 82.7786 130.583 83.0786 131.07C83.3786 131.557 83.7719 131.903 84.2586 132.11C84.7453 132.317 85.2886 132.42 85.8886 132.42C86.1419 132.42 86.4519 132.393 86.8186 132.34C87.1853 132.28 87.5386 132.207 87.8786 132.12C88.2253 132.027 88.4886 131.927 88.6686 131.82L89.1086 133.14C88.8619 133.34 88.5253 133.517 88.0986 133.67C87.6786 133.823 87.2219 133.943 86.7286 134.03C86.2353 134.117 85.7553 134.16 85.2886 134.16ZM91.5009 133.34L91.8209 131.64C91.9209 131.713 92.1276 131.813 92.4409 131.94C92.7609 132.06 93.1409 132.173 93.5809 132.28C94.0276 132.38 94.4876 132.433 94.9609 132.44C95.6009 132.447 96.0876 132.337 96.4209 132.11C96.7543 131.883 96.9209 131.567 96.9209 131.16C96.9209 130.873 96.8209 130.623 96.6209 130.41C96.4209 130.197 96.1443 130 95.7909 129.82C95.4443 129.633 95.0476 129.44 94.6009 129.24C94.0009 128.967 93.4709 128.67 93.0109 128.35C92.5509 128.03 92.1909 127.653 91.9309 127.22C91.6776 126.787 91.5543 126.267 91.5609 125.66C91.5743 125 91.7643 124.453 92.1309 124.02C92.5043 123.58 92.9976 123.253 93.6109 123.04C94.2243 122.827 94.9076 122.72 95.6609 122.72C96.3609 122.72 96.9743 122.793 97.5009 122.94C98.0276 123.08 98.3743 123.2 98.5409 123.3L98.2009 125.04C98.0809 124.94 97.8943 124.843 97.6409 124.75C97.3943 124.65 97.1076 124.57 96.7809 124.51C96.4543 124.45 96.1209 124.42 95.7809 124.42C95.1009 124.42 94.5876 124.52 94.2409 124.72C93.8943 124.913 93.7143 125.187 93.7009 125.54C93.6943 126.027 93.8609 126.39 94.2009 126.63C94.5476 126.87 94.9609 127.107 95.4409 127.34C96.1276 127.673 96.7476 128.003 97.3009 128.33C97.8543 128.65 98.2909 129.02 98.6109 129.44C98.9376 129.853 99.1009 130.367 99.1009 130.98C99.1009 132.02 98.7443 132.81 98.0309 133.35C97.3176 133.89 96.3409 134.16 95.1009 134.16C94.5876 134.16 94.0876 134.12 93.6009 134.04C93.1209 133.96 92.6943 133.857 92.3209 133.73C91.9543 133.603 91.6809 133.473 91.5009 133.34ZM108.484 134.16C107.957 134.16 107.494 134.077 107.094 133.91C106.694 133.743 106.381 133.45 106.154 133.03C105.934 132.603 105.824 132 105.824 131.22V124.56H104.384V123.32C104.877 123.18 105.254 123.063 105.514 122.97C105.774 122.87 105.964 122.66 106.084 122.34C106.137 122.193 106.197 122.02 106.264 121.82C106.331 121.613 106.404 121.387 106.484 121.14C106.564 120.887 106.651 120.613 106.744 120.32H108.124V122.86H111.244V124.56H108.124V130C108.124 130.72 108.154 131.247 108.214 131.58C108.281 131.907 108.401 132.117 108.574 132.21C108.754 132.297 109.017 132.34 109.364 132.34C109.551 132.34 109.764 132.32 110.004 132.28C110.251 132.233 110.484 132.177 110.704 132.11C110.931 132.043 111.104 131.973 111.224 131.9L111.604 133.22C111.404 133.373 111.134 133.523 110.794 133.67C110.461 133.81 110.091 133.927 109.684 134.02C109.284 134.113 108.884 134.16 108.484 134.16ZM115.821 125.82L115.681 124.3C115.781 124.093 115.991 123.867 116.311 123.62C116.631 123.367 117.008 123.15 117.441 122.97C117.881 122.79 118.328 122.7 118.781 122.7C119.034 122.7 119.251 122.71 119.431 122.73C119.618 122.75 119.754 122.787 119.841 122.84V125C119.741 124.947 119.588 124.89 119.381 124.83C119.181 124.77 118.854 124.74 118.401 124.74C117.988 124.74 117.614 124.8 117.281 124.92C116.954 125.033 116.668 125.173 116.421 125.34C116.174 125.507 115.974 125.667 115.821 125.82ZM113.641 134V122.88H115.601L115.761 124.3L115.941 125.14V134H113.641ZM124.157 134.16C123.49 134.16 122.897 134.03 122.377 133.77C121.864 133.503 121.457 133.13 121.157 132.65C120.864 132.163 120.717 131.59 120.717 130.93C120.717 130.217 120.907 129.613 121.287 129.12C121.674 128.62 122.19 128.23 122.837 127.95C123.264 127.777 123.727 127.64 124.227 127.54C124.727 127.433 125.227 127.36 125.727 127.32C126.227 127.273 126.69 127.25 127.117 127.25L127.597 127.86L127.117 128.67C126.857 128.67 126.544 128.69 126.177 128.73C125.817 128.763 125.46 128.82 125.107 128.9C124.754 128.973 124.454 129.07 124.207 129.19C123.867 129.343 123.584 129.54 123.357 129.78C123.13 130.02 123.017 130.353 123.017 130.78C123.017 131.34 123.17 131.763 123.477 132.05C123.79 132.337 124.254 132.48 124.867 132.48C125.18 132.48 125.497 132.433 125.817 132.34C126.137 132.247 126.414 132.14 126.647 132.02C126.887 131.9 127.044 131.797 127.117 131.71L127.577 132.2L127.247 133.06C126.954 133.327 126.53 133.577 125.977 133.81C125.424 134.043 124.817 134.16 124.157 134.16ZM129.427 134H127.247V132.34H127.117V126.2C127.117 125.547 126.944 125.117 126.597 124.91C126.257 124.697 125.77 124.59 125.137 124.59C124.717 124.59 124.284 124.633 123.837 124.72C123.39 124.8 122.98 124.903 122.607 125.03C122.234 125.15 121.947 125.273 121.747 125.4L121.207 123.74C121.36 123.647 121.654 123.517 122.087 123.35C122.527 123.183 123.037 123.033 123.617 122.9C124.204 122.76 124.784 122.69 125.357 122.69C126.19 122.69 126.91 122.787 127.517 122.98C128.13 123.173 128.6 123.533 128.927 124.06C129.26 124.58 129.427 125.337 129.427 126.33V134ZM131.671 128.56C131.671 127.46 131.871 126.47 132.271 125.59C132.671 124.71 133.271 124.013 134.071 123.5C134.871 122.98 135.871 122.72 137.071 122.72C137.771 122.72 138.364 122.783 138.851 122.91C139.338 123.037 139.671 123.16 139.851 123.28L139.491 125.1C139.211 124.907 138.874 124.763 138.481 124.67C138.088 124.57 137.611 124.52 137.051 124.52C136.551 124.52 136.068 124.643 135.601 124.89C135.134 125.13 134.744 125.517 134.431 126.05C134.118 126.583 133.944 127.287 133.911 128.16C133.884 129.08 134.004 129.857 134.271 130.49C134.544 131.117 134.918 131.593 135.391 131.92C135.871 132.24 136.404 132.4 136.991 132.4C137.544 132.4 138.054 132.33 138.521 132.19C138.994 132.05 139.351 131.907 139.591 131.76L140.031 133.1C139.691 133.42 139.211 133.677 138.591 133.87C137.971 134.063 137.311 134.16 136.611 134.16C135.551 134.16 134.654 133.913 133.921 133.42C133.188 132.927 132.628 132.26 132.241 131.42C131.861 130.573 131.671 129.62 131.671 128.56ZM151.627 122.86L144.347 130.46L144.547 129.92L144.587 131.84V134H142.347V127.38V117.78H144.587V126.26L144.507 128.7L143.967 128.32L148.927 122.86H151.627ZM145.747 128.52L147.307 127.02L152.107 134H149.487L145.747 128.52ZM157.867 134.16C156.267 134.16 155.033 133.653 154.167 132.64C153.3 131.627 152.867 130.22 152.867 128.42C152.867 127.34 153.057 126.373 153.437 125.52C153.823 124.667 154.39 123.99 155.137 123.49C155.89 122.99 156.813 122.733 157.907 122.72C158.467 122.707 158.993 122.787 159.487 122.96C159.98 123.133 160.417 123.397 160.797 123.75C161.177 124.097 161.477 124.537 161.697 125.07C161.923 125.603 162.047 126.227 162.067 126.94C162.067 127.36 162.063 127.737 162.057 128.07C162.05 128.397 162.02 128.687 161.967 128.94H154.207L154.407 127.48H159.907C159.94 126.947 159.907 126.443 159.807 125.97C159.713 125.49 159.507 125.103 159.187 124.81C158.873 124.51 158.407 124.36 157.787 124.36C157.267 124.36 156.8 124.507 156.387 124.8C155.973 125.087 155.653 125.573 155.427 126.26C155.2 126.947 155.107 127.887 155.147 129.08C155.187 129.92 155.357 130.583 155.657 131.07C155.957 131.557 156.35 131.903 156.837 132.11C157.323 132.317 157.867 132.42 158.467 132.42C158.72 132.42 159.03 132.393 159.397 132.34C159.763 132.28 160.117 132.207 160.457 132.12C160.803 132.027 161.067 131.927 161.247 131.82L161.687 133.14C161.44 133.34 161.103 133.517 160.677 133.67C160.257 133.823 159.8 133.943 159.307 134.03C158.813 134.117 158.333 134.16 157.867 134.16ZM166.739 125.82L166.599 124.3C166.699 124.093 166.909 123.867 167.229 123.62C167.549 123.367 167.926 123.15 168.359 122.97C168.799 122.79 169.246 122.7 169.699 122.7C169.952 122.7 170.169 122.71 170.349 122.73C170.536 122.75 170.672 122.787 170.759 122.84V125C170.659 124.947 170.506 124.89 170.299 124.83C170.099 124.77 169.772 124.74 169.319 124.74C168.906 124.74 168.532 124.8 168.199 124.92C167.872 125.033 167.586 125.173 167.339 125.34C167.092 125.507 166.892 125.667 166.739 125.82ZM164.559 134V122.88H166.519L166.679 124.3L166.859 125.14V134H164.559Z" fill="#D09730"/>
</svg>
